# xmcd
#
# Track frame offsets:
#	150
#	13991
#	24511
#	34225
#	45795
#	57397
#	73755
#	83340
#	101000
#	112936
#	142074
#	157525
#	178169
#	198257
#	213679
#	245125
#	271929
#
# Disc length: 4704 seconds
#
# Revision: 0
# Processed by: cddbd v1.5.2PL0 Copyright (c) Steve Scherf et al.
# Submitted via: EasyCDDAExtractor 15.3.0.1
#
DISCID=e8125e11
DTITLE=Donna Summer - Live And More
DYEAR=1900
DGENRE=
TTITLE0=Once Upon A Time
TTITLE1=Fairy Tale High
TTITLE2=Faster And Faster To Nowhere
TTITLE3=Spring Affair
TTITLE4=Rumour Has It
TTITLE5=I Love You
TTITLE6=Only One Man
TTITLE7=I Remember Yesterday
TTITLE8=Love's Unkind
TTITLE9=My Man Medley
TTITLE10=The Way We Were
TTITLE11=Mimi's Song
TTITLE12=Try Me, I Know We Can Make It
TTITLE13=Love To Love You Baby
TTITLE14=I Feel Love
TTITLE15=Last Dance
TTITLE16=Theme From The Deep (Down, Deep Inside)
EXTD=
EXTT0=
EXTT1=
EXTT2=
EXTT3=
EXTT4=
EXTT5=
EXTT6=
EXTT7=
EXTT8=
EXTT9=
EXTT10=
EXTT11=
EXTT12=
EXTT13=
EXTT14=
EXTT15=
EXTT16=
PLAYORDER=
